<svg width="28" height="28" viewBox="0 0 28 28" fill="none" xmlns="http://www.w3.org/2000/svg">
<circle cx="14" cy="14" r="14" fill="#282828"/>
<path fill-rule="evenodd" clip-rule="evenodd" d="M12.5003 12.232H14.6668V13.3112C14.9789 12.6905 15.7792 12.1328 16.9814 12.1328C19.2862 12.1328 19.8334 13.3683 19.8334 15.6352V19.8334H17.5V16.1514C17.5 14.8605 17.1879 14.1325 16.3934 14.1325C15.2915 14.1325 14.8336 14.9171 14.8336 16.1508V19.8334H12.5003V12.232ZM8.49919 19.7342H10.8325V12.1328H8.49919V19.7342ZM11.1668 9.65425C11.1669 9.84983 11.1281 10.0435 11.0527 10.2239C10.9773 10.4044 10.8667 10.568 10.7275 10.7054C10.5879 10.8443 10.4223 10.9543 10.2401 11.0292C10.0579 11.1041 9.8628 11.1423 9.66585 11.1417C9.26896 11.1409 8.88822 10.9844 8.60535 10.706C8.4667 10.5681 8.35658 10.4043 8.28131 10.2238C8.20604 10.0433 8.16709 9.84979 8.16669 9.65425C8.16669 9.25933 8.32419 8.88133 8.60594 8.6025C8.8881 8.32301 9.26929 8.16638 9.66644 8.16675C10.0643 8.16675 10.4458 8.32367 10.7275 8.6025C11.0093 8.88133 11.1668 9.25933 11.1668 9.65425Z" fill="white"/>
</svg>
