<svg width="28" height="28" viewBox="0 0 28 28" fill="none" xmlns="http://www.w3.org/2000/svg">
<circle cx="14" cy="14" r="14" fill="#282828"/>
<path d="M12.8334 15.7501L15.8609 14.0001L12.8334 12.2501V15.7501ZM19.5767 11.1826C19.6525 11.4567 19.705 11.8242 19.74 12.2909C19.7809 12.7576 19.7984 13.1601 19.7984 13.5101L19.8334 14.0001C19.8334 15.2776 19.74 16.2167 19.5767 16.8176C19.4309 17.3426 19.0925 17.6809 18.5675 17.8267C18.2934 17.9026 17.7917 17.9551 17.0217 17.9901C16.2634 18.0309 15.5692 18.0484 14.9275 18.0484L14 18.0834C11.5559 18.0834 10.0334 17.9901 9.43252 17.8267C8.90752 17.6809 8.56919 17.3426 8.42335 16.8176C8.34752 16.5434 8.29502 16.1759 8.26002 15.7092C8.21919 15.2426 8.20169 14.8401 8.20169 14.4901L8.16669 14.0001C8.16669 12.7226 8.26002 11.7834 8.42335 11.1826C8.56919 10.6576 8.90752 10.3192 9.43252 10.1734C9.70669 10.0976 10.2084 10.0451 10.9784 10.0101C11.7367 9.96925 12.4309 9.95175 13.0725 9.95175L14 9.91675C16.4442 9.91675 17.9667 10.0101 18.5675 10.1734C19.0925 10.3192 19.4309 10.6576 19.5767 11.1826Z" fill="white"/>
</svg>
